{"title":"The Purgation 2016 Movies HDRip XviD AAC New Source +Sample ☻rDX","uid":15725139,"size":739419813,"categoryP":"video","categoryS":"movies","magnet":"?xt=urn:btih:76cd07526b46315fd44290e927b9bdb1255810a3&amp;dn=The+Purgation+2016+Movies+HDRip+XviD+AAC+New+Source+%2BSample+%E2%98%BBrDX&amp;tr=udp%3A%2F%2Ftracker.leechers-paradise.org%3A6969&amp;tr=udp%3A%2F%2Fzer0day.ch%3A1337&amp;tr=udp%3A%2F%2Fopen.demonii.com%3A1337&amp;tr=udp%3A%2F%2Ftracker.coppersurfer.tk%3A6969&amp;tr=udp%3A%2F%2Fexodus.desync.com%3A6969","seeders":1,"leechers":1,"uploader":"basicssom","files":2,"time":1472705456,"description":"----------------------------------------------------------------\r\nThe Purgation 2016 English Movies HDRip XviD AAC New Source with Sample ☻rDX☻\r\n\r\nSCREEN SHOTS &amp; POSTER:\r\n  \nhttp://postimage.co.nr/2016/9/return/index.htm  \nhttp://postimage.co.nr/2016/9/return/1.html  \nhttp://postimage.co.nr/2016/9/return/2.html  \nhttp://postimage.co.nr/2016/9/return/3.html  \nhttp://postimage.co.nr/2016/9/return/4.html  \nhttp://postimage.co.nr/2016/9/return/5.html  \nhttp://postimage.co.nr/2016/9/return/6.html  \nhttp://postimage.co.nr/2016/9/return/7.html  \nhttp://postimage.co.nr/2016/9/return/8.html  \nhttp://postimage.co.nr/2016/9/return/9.html  \nhttp://postimage.co.nr/2016/9/return/10.html\r\n\r\nFormat                                   : Matroska\r\nFormat version                           : Version 4 / Version 2\r\nFile size                                : 698 MiB\r\nDuration                                 : 1 h 18 min\r\nOverall bit rate mode                    : Constant\r\nOverall bit rate                         : 1 242 kb/s\r\nMovie name                               : The Purgation 2016 English Movies HDRip XviD AAC New Source ☻rDX☻\r\n\r\nVideo\r\nID                                       : 2\r\nFormat                                   : AVC\r\nFormat/Info                              : Advanced Video Codec\r\nFormat profile                           :   \r\nFormat settings, CABAC                   : Yes\r\nFormat settings, ReFrames                : 2 frames\r\nFormat settings, GOP                     : M=1, N=12\r\nCodec ID                                 : V_MPEG4/ISO/AVC\r\nDuration                                 : 1 h 18 min\r\nBit rate mode                            : Constant\r\nBit rate                                 : 859 kb/s\r\nWidth                                    : 720 pixels\r\nHeight                                   : 304 pixels\r\nDisplay aspect ratio                     : 2.35:1\r\nFrame rate mode                          : Constant\r\nFrame rate                               : 23.976 FPS\r\nColor space                              : YUV\r\nChroma subsampling                       : 4:2:0\r\nBit depth                                : 8 bits\r\nScan type                                : Progressive\r\nBits/(Pixel*Frame)                       : 0.164\r\nStream size                              : 468 MiB (67%)\r\nTitle                                    : ☻rDX☻\r\nDefault                                  : Yes\r\nForced                                   : No\r\n\r\nAudio\r\nID                                       : 1\r\nFormat                                   : AC-3\r\nFormat/Info                              : Audio Coding 3\r\nMode extension                           : CM (complete main)\r\nFormat settings, Endianness              : Big\r\nCodec ID                                 : A_AC3\r\nDuration                                 : 1 h 18 min\r\nBit rate mode                            : Constant\r\nBit rate                                 : 384 kb/s\r\nChannel(s)                               : 6 channels\r\nChannel positions                        : Front: L C R, Side: L R, LFE\r\nSampling rate                            : 48.0 kHz\r\nFrame rate                               : 31.250 FPS (1536 spf)\r\nCompression mode                         : Lossy\r\nStream size                              : 216 MiB (31%)\r\nTitle                                    : ☻rDX☻\r\nDefault                                  : Yes\r\nForced                                   : No\r\n\r\nIMDB \nhttp://www.imdb.com/title/tt3593626/","torrent":{"xt":"urn:btih:76cd07526b46315fd44290e927b9bdb1255810a3","amp;dn":"The+Purgation+2016+Movies+HDRip+XviD+AAC+New+Source+%2BSample+%E2%98%BBrDX","amp;tr":["udp%3A%2F%2Ftracker.leechers-paradise.org%3A6969","udp%3A%2F%2Fzer0day.ch%3A1337","udp%3A%2F%2Fopen.demonii.com%3A1337","udp%3A%2F%2Ftracker.coppersurfer.tk%3A6969","udp%3A%2F%2Fexodus.desync.com%3A6969"],"infoHash":"76cd07526b46315fd44290e927b9bdb1255810a3","infoHashBuffer":{"type":"Buffer","data":[118,205,7,82,107,70,49,95,212,66,144,233,39,185,189,177,37,88,16,163]},"announce":[],"urlList":[]}}